<svg id="visual" viewBox="0 0 900 600" width="900" height="600" xmlns="http://www.w3.org/2000/svg" xmlns:xlink="http://www.w3.org/1999/xlink" version="1.1"><rect x="0" y="0" width="900" height="600" fill="#F4FFFD"></rect><defs><linearGradient id="grad1_0" x1="33.3%" y1="0%" x2="100%" y2="100%"><stop offset="20%" stop-color="#ed254e" stop-opacity="1"></stop><stop offset="80%" stop-color="#ed254e" stop-opacity="1"></stop></linearGradient></defs><defs><linearGradient id="grad1_1" x1="33.3%" y1="0%" x2="100%" y2="100%"><stop offset="20%" stop-color="#ed254e" stop-opacity="1"></stop><stop offset="80%" stop-color="#d39a44" stop-opacity="1"></stop></linearGradient></defs><defs><linearGradient id="grad1_2" x1="33.3%" y1="0%" x2="100%" y2="100%"><stop offset="20%" stop-color="#bcd9a5" stop-opacity="1"></stop><stop offset="80%" stop-color="#d39a44" stop-opacity="1"></stop></linearGradient></defs><defs><linearGradient id="grad1_3" x1="33.3%" y1="0%" x2="100%" y2="100%"><stop offset="20%" stop-color="#bcd9a5" stop-opacity="1"></stop><stop offset="80%" stop-color="#f4fffd" stop-opacity="1"></stop></linearGradient></defs><defs><linearGradient id="grad2_0" x1="0%" y1="0%" x2="66.7%" y2="100%"><stop offset="20%" stop-color="#ed254e" stop-opacity="1"></stop><stop offset="80%" stop-color="#ed254e" stop-opacity="1"></stop></linearGradient></defs><defs><linearGradient id="grad2_1" x1="0%" y1="0%" x2="66.7%" y2="100%"><stop offset="20%" stop-color="#d39a44" stop-opacity="1"></stop><stop offset="80%" stop-color="#ed254e" stop-opacity="1"></stop></linearGradient></defs><defs><linearGradient id="grad2_2" x1="0%" y1="0%" x2="66.7%" y2="100%"><stop offset="20%" stop-color="#d39a44" stop-opacity="1"></stop><stop offset="80%" stop-color="#bcd9a5" stop-opacity="1"></stop></linearGradient></defs><defs><linearGradient id="grad2_3" x1="0%" y1="0%" x2="66.7%" y2="100%"><stop offset="20%" stop-color="#f4fffd" stop-opacity="1"></stop><stop offset="80%" stop-color="#bcd9a5" stop-opacity="1"></stop></linearGradient></defs><g transform="translate(900, 0)"><path d="M0 297.5C-54.9 291.3 -109.7 285.2 -148.7 257.6C-187.7 230 -210.8 181 -233 134.5C-255.1 88 -276.3 44 -297.5 0L0 0Z" fill="#cceed9"></path><path d="M0 223.1C-41.2 218.5 -82.3 213.9 -111.5 193.2C-140.8 172.5 -158.1 135.8 -174.7 100.9C-191.3 66 -207.2 33 -223.1 0L0 0Z" fill="#c2bd6e"></path><path d="M0 148.7C-27.4 145.7 -54.9 142.6 -74.4 128.8C-93.9 115 -105.4 90.5 -116.5 67.3C-127.6 44 -138.1 22 -148.7 0L0 0Z" fill="#e56c38"></path><path d="M0 74.4C-13.7 72.8 -27.4 71.3 -37.2 64.4C-46.9 57.5 -52.7 45.3 -58.2 33.6C-63.8 22 -69.1 11 -74.4 0L0 0Z" fill="#ed254e"></path></g><g transform="translate(0, 600)"><path d="M0 -297.5C55 -291.4 110 -285.3 148.7 -257.6C187.5 -229.9 210 -180.5 232.1 -134C254.2 -87.5 275.8 -43.7 297.5 0L0 0Z" fill="#cceed9"></path><path d="M0 -223.1C41.2 -218.5 82.5 -214 111.5 -193.2C140.6 -172.4 157.5 -135.4 174.1 -100.5C190.6 -65.6 206.9 -32.8 223.1 0L0 0Z" fill="#c2bd6e"></path><path d="M0 -148.7C27.5 -145.7 55 -142.7 74.4 -128.8C93.7 -114.9 105 -90.3 116 -67C127.1 -43.7 137.9 -21.9 148.7 0L0 0Z" fill="#e56c38"></path><path d="M0 -74.4C13.7 -72.8 27.5 -71.3 37.2 -64.4C46.9 -57.5 52.5 -45.1 58 -33.5C63.5 -21.9 69 -10.9 74.4 0L0 0Z" fill="#ed254e"></path></g></svg>