<svg id="visual" viewBox="0 0 900 600" width="900" height="600" xmlns="http://www.w3.org/2000/svg" xmlns:xlink="http://www.w3.org/1999/xlink" version="1.1"><rect x="0" y="0" width="900" height="600" fill="#F4FFFD"></rect><defs><linearGradient id="grad1_0" x1="33.3%" y1="0%" x2="100%" y2="100%"><stop offset="20%" stop-color="#011936" stop-opacity="1"></stop><stop offset="80%" stop-color="#011936" stop-opacity="1"></stop></linearGradient></defs><defs><linearGradient id="grad1_1" x1="33.3%" y1="0%" x2="100%" y2="100%"><stop offset="20%" stop-color="#011936" stop-opacity="1"></stop><stop offset="80%" stop-color="#668692" stop-opacity="1"></stop></linearGradient></defs><defs><linearGradient id="grad1_2" x1="33.3%" y1="0%" x2="100%" y2="100%"><stop offset="20%" stop-color="#f4fffd" stop-opacity="1"></stop><stop offset="80%" stop-color="#668692" stop-opacity="1"></stop></linearGradient></defs><defs><linearGradient id="grad2_0" x1="0%" y1="0%" x2="66.7%" y2="100%"><stop offset="20%" stop-color="#011936" stop-opacity="1"></stop><stop offset="80%" stop-color="#011936" stop-opacity="1"></stop></linearGradient></defs><defs><linearGradient id="grad2_1" x1="0%" y1="0%" x2="66.7%" y2="100%"><stop offset="20%" stop-color="#668692" stop-opacity="1"></stop><stop offset="80%" stop-color="#011936" stop-opacity="1"></stop></linearGradient></defs><defs><linearGradient id="grad2_2" x1="0%" y1="0%" x2="66.7%" y2="100%"><stop offset="20%" stop-color="#668692" stop-opacity="1"></stop><stop offset="80%" stop-color="#f4fffd" stop-opacity="1"></stop></linearGradient></defs><g transform="translate(900, 0)"><path d="M0 243.4C-29.9 235.4 -59.7 227.5 -89.9 217.1C-120.1 206.7 -150.7 193.8 -172.1 172.1C-193.5 150.3 -205.8 119.7 -216.2 89.5C-226.5 59.4 -235 29.7 -243.4 0L0 0Z" fill="#aac1c4"></path><path d="M0 162.2C-19.9 157 -39.8 151.7 -60 144.7C-80.1 137.8 -100.4 129.2 -114.7 114.7C-129 100.2 -137.2 79.8 -144.1 59.7C-151 39.6 -156.6 19.8 -162.2 0L0 0Z" fill="#2e4d64"></path><path d="M0 81.1C-10 78.5 -19.9 75.8 -30 72.4C-40 68.9 -50.2 64.6 -57.4 57.4C-64.5 50.1 -68.6 39.9 -72.1 29.8C-75.5 19.8 -78.3 9.9 -81.1 0L0 0Z" fill="#011936"></path></g><g transform="translate(0, 600)"><path d="M0 -243.4C29.4 -234.4 58.8 -225.5 89.2 -215.3C119.5 -205 150.7 -193.5 172.1 -172.1C193.5 -150.7 205 -119.5 215.3 -89.2C225.5 -58.8 234.4 -29.4 243.4 0L0 0Z" fill="#aac1c4"></path><path d="M0 -162.2C19.6 -156.3 39.2 -150.3 59.4 -143.5C79.7 -136.7 100.5 -129 114.7 -114.7C129 -100.5 136.7 -79.7 143.5 -59.4C150.3 -39.2 156.3 -19.6 162.2 0L0 0Z" fill="#2e4d64"></path><path d="M0 -81.1C9.8 -78.1 19.6 -75.2 29.7 -71.8C39.8 -68.3 50.2 -64.5 57.4 -57.4C64.5 -50.2 68.3 -39.8 71.8 -29.7C75.2 -19.6 78.1 -9.8 81.1 0L0 0Z" fill="#011936"></path></g></svg>