    <svg id="visual" viewBox="0 0 900 600" width="900" height="600" xmlns="http://www.w3.org/2000/svg" xmlns:xlink="http://www.w3.org/1999/xlink" version="1.1"><rect x="0" y="0" width="900" height="600" fill="#F7FAFC"></rect><defs><linearGradient id="grad1_0" x1="33.3%" y1="0%" x2="100%" y2="100%"><stop offset="20%" stop-color="#4e53c1" stop-opacity="1"></stop><stop offset="80%" stop-color="#4e53c1" stop-opacity="1"></stop></linearGradient></defs><defs><linearGradient id="grad1_1" x1="33.3%" y1="0%" x2="100%" y2="100%"><stop offset="20%" stop-color="#4e53c1" stop-opacity="1"></stop><stop offset="80%" stop-color="#5b81d8" stop-opacity="1"></stop></linearGradient></defs><defs><linearGradient id="grad1_2" x1="33.3%" y1="0%" x2="100%" y2="100%"><stop offset="20%" stop-color="#81ace6" stop-opacity="1"></stop><stop offset="80%" stop-color="#5b81d8" stop-opacity="1"></stop></linearGradient></defs><defs><linearGradient id="grad1_3" x1="33.3%" y1="0%" x2="100%" y2="100%"><stop offset="20%" stop-color="#81ace6" stop-opacity="1"></stop><stop offset="80%" stop-color="#b6d4f1" stop-opacity="1"></stop></linearGradient></defs><defs><linearGradient id="grad1_4" x1="33.3%" y1="0%" x2="100%" y2="100%"><stop offset="20%" stop-color="#f7fafc" stop-opacity="1"></stop><stop offset="80%" stop-color="#b6d4f1" stop-opacity="1"></stop></linearGradient></defs><defs><linearGradient id="grad2_0" x1="0%" y1="0%" x2="66.7%" y2="100%"><stop offset="20%" stop-color="#4e53c1" stop-opacity="1"></stop><stop offset="80%" stop-color="#4e53c1" stop-opacity="1"></stop></linearGradient></defs><defs><linearGradient id="grad2_1" x1="0%" y1="0%" x2="66.7%" y2="100%"><stop offset="20%" stop-color="#5b81d8" stop-opacity="1"></stop><stop offset="80%" stop-color="#4e53c1" stop-opacity="1"></stop></linearGradient></defs><defs><linearGradient id="grad2_2" x1="0%" y1="0%" x2="66.7%" y2="100%"><stop offset="20%" stop-color="#5b81d8" stop-opacity="1"></stop><stop offset="80%" stop-color="#81ace6" stop-opacity="1"></stop></linearGradient></defs><defs><linearGradient id="grad2_3" x1="0%" y1="0%" x2="66.7%" y2="100%"><stop offset="20%" stop-color="#b6d4f1" stop-opacity="1"></stop><stop offset="80%" stop-color="#81ace6" stop-opacity="1"></stop></linearGradient></defs><defs><linearGradient id="grad2_4" x1="0%" y1="0%" x2="66.7%" y2="100%"><stop offset="20%" stop-color="#b6d4f1" stop-opacity="1"></stop><stop offset="80%" stop-color="#f7fafc" stop-opacity="1"></stop></linearGradient></defs><g transform="translate(900, 0)"><path d="M0 216.3C-27.7 211.2 -55.4 206 -81.1 195.9C-106.9 185.7 -130.7 170.6 -151.3 151.3C-172 132.1 -189.5 108.7 -199.9 82.8C-210.2 56.9 -213.3 28.4 -216.3 0L0 0Z" fill="#d5e8f6"></path><path d="M0 173.1C-22.2 168.9 -44.3 164.8 -64.9 156.7C-85.5 148.6 -104.5 136.5 -121.1 121.1C-137.6 105.7 -151.6 87 -159.9 66.2C-168.1 45.5 -170.6 22.8 -173.1 0L0 0Z" fill="#9ac0ec"></path><path d="M0 129.8C-16.6 126.7 -33.2 123.6 -48.7 117.5C-64.1 111.4 -78.4 102.3 -90.8 90.8C-103.2 79.2 -113.7 65.2 -119.9 49.7C-126.1 34.1 -128 17.1 -129.8 0L0 0Z" fill="#6c97e0"></path><path d="M0 86.5C-11.1 84.5 -22.2 82.4 -32.5 78.3C-42.7 74.3 -52.3 68.2 -60.5 60.5C-68.8 52.8 -75.8 43.5 -79.9 33.1C-84.1 22.8 -85.3 11.4 -86.5 0L0 0Z" fill="#526bce"></path><path d="M0 43.3C-5.5 42.2 -11.1 41.2 -16.2 39.2C-21.4 37.1 -26.1 34.1 -30.3 30.3C-34.4 26.4 -37.9 21.7 -40 16.6C-42 11.4 -42.7 5.7 -43.3 0L0 0Z" fill="#4e53c1"></path></g><g transform="translate(0, 600)"><path d="M0 -216.3C26.9 -209.9 53.9 -203.5 80.4 -194C106.8 -184.6 132.9 -172.1 153 -153C173.1 -133.9 187.2 -108.1 196.8 -81.5C206.4 -54.9 211.3 -27.5 216.3 0L0 0Z" fill="#d5e8f6"></path><path d="M0 -173.1C21.6 -167.9 43.1 -162.8 64.3 -155.2C85.5 -147.6 106.3 -137.7 122.4 -122.4C138.4 -107.1 149.8 -86.5 157.4 -65.2C165.1 -43.9 169.1 -22 173.1 0L0 0Z" fill="#9ac0ec"></path><path d="M0 -129.8C16.2 -125.9 32.3 -122.1 48.2 -116.4C64.1 -110.7 79.7 -103.2 91.8 -91.8C103.8 -80.3 112.3 -64.9 118.1 -48.9C123.8 -32.9 126.8 -16.5 129.8 0L0 0Z" fill="#6c97e0"></path><path d="M0 -86.5C10.8 -84 21.6 -81.4 32.1 -77.6C42.7 -73.8 53.2 -68.8 61.2 -61.2C69.2 -53.5 74.9 -43.2 78.7 -32.6C82.5 -22 84.5 -11 86.5 0L0 0Z" fill="#526bce"></path><path d="M0 -43.3C5.4 -42 10.8 -40.7 16.1 -38.8C21.4 -36.9 26.6 -34.4 30.6 -30.6C34.6 -26.8 37.4 -21.6 39.4 -16.3C41.3 -11 42.3 -5.5 43.3 0L0 0Z" fill="#4e53c1"></path></g></svg>