<svg id="visual" viewBox="0 0 900 400" width="900" height="400" xmlns="http://www.w3.org/2000/svg" xmlns:xlink="http://www.w3.org/1999/xlink" version="1.1"><rect x="0" y="0" width="900" height="400" fill="#F4FFFD"></rect><defs><linearGradient id="grad1_0" x1="57.8%" y1="0%" x2="100%" y2="100%"><stop offset="2.631578947368425%" stop-color="#011936" stop-opacity="1"></stop><stop offset="97.36842105263156%" stop-color="#011936" stop-opacity="1"></stop></linearGradient></defs><defs><linearGradient id="grad1_1" x1="57.8%" y1="0%" x2="100%" y2="100%"><stop offset="2.631578947368425%" stop-color="#011936" stop-opacity="1"></stop><stop offset="97.36842105263156%" stop-color="#2e4d64" stop-opacity="1"></stop></linearGradient></defs><defs><linearGradient id="grad1_2" x1="57.8%" y1="0%" x2="100%" y2="100%"><stop offset="2.631578947368425%" stop-color="#668692" stop-opacity="1"></stop><stop offset="97.36842105263156%" stop-color="#2e4d64" stop-opacity="1"></stop></linearGradient></defs><defs><linearGradient id="grad1_3" x1="57.8%" y1="0%" x2="100%" y2="100%"><stop offset="2.631578947368425%" stop-color="#668692" stop-opacity="1"></stop><stop offset="97.36842105263156%" stop-color="#aac1c4" stop-opacity="1"></stop></linearGradient></defs><defs><linearGradient id="grad1_4" x1="57.8%" y1="0%" x2="100%" y2="100%"><stop offset="2.631578947368425%" stop-color="#f4fffd" stop-opacity="1"></stop><stop offset="97.36842105263156%" stop-color="#aac1c4" stop-opacity="1"></stop></linearGradient></defs><defs><linearGradient id="grad2_0" x1="0%" y1="0%" x2="42.2%" y2="100%"><stop offset="2.631578947368425%" stop-color="#011936" stop-opacity="1"></stop><stop offset="97.36842105263156%" stop-color="#011936" stop-opacity="1"></stop></linearGradient></defs><defs><linearGradient id="grad2_1" x1="0%" y1="0%" x2="42.2%" y2="100%"><stop offset="2.631578947368425%" stop-color="#2e4d64" stop-opacity="1"></stop><stop offset="97.36842105263156%" stop-color="#011936" stop-opacity="1"></stop></linearGradient></defs><defs><linearGradient id="grad2_2" x1="0%" y1="0%" x2="42.2%" y2="100%"><stop offset="2.631578947368425%" stop-color="#2e4d64" stop-opacity="1"></stop><stop offset="97.36842105263156%" stop-color="#668692" stop-opacity="1"></stop></linearGradient></defs><defs><linearGradient id="grad2_3" x1="0%" y1="0%" x2="42.2%" y2="100%"><stop offset="2.631578947368425%" stop-color="#aac1c4" stop-opacity="1"></stop><stop offset="97.36842105263156%" stop-color="#668692" stop-opacity="1"></stop></linearGradient></defs><defs><linearGradient id="grad2_4" x1="0%" y1="0%" x2="42.2%" y2="100%"><stop offset="2.631578947368425%" stop-color="#aac1c4" stop-opacity="1"></stop><stop offset="97.36842105263156%" stop-color="#f4fffd" stop-opacity="1"></stop></linearGradient></defs><g transform="translate(900, 0)"><path d="M0 171C-29.1 165.5 -58.2 159.9 -84.5 146.4C-110.8 132.8 -134.2 111.2 -148.1 85.5C-162 59.8 -166.5 29.9 -171 0L0 0Z" fill="#cee0df"></path><path d="M0 136.8C-23.3 132.4 -46.6 127.9 -67.6 117.1C-88.6 106.2 -107.3 89 -118.5 68.4C-129.6 47.8 -133.2 23.9 -136.8 0L0 0Z" fill="#87a3aa"></path><path d="M0 102.6C-17.5 99.3 -34.9 95.9 -50.7 87.8C-66.5 79.7 -80.5 66.7 -88.9 51.3C-97.2 35.9 -99.9 17.9 -102.6 0L0 0Z" fill="#49697b"></path><path d="M0 68.4C-11.6 66.2 -23.3 64 -33.8 58.5C-44.3 53.1 -53.7 44.5 -59.2 34.2C-64.8 23.9 -66.6 12 -68.4 0L0 0Z" fill="#16324d"></path><path d="M0 34.2C-5.8 33.1 -11.6 32 -16.9 29.3C-22.2 26.6 -26.8 22.2 -29.6 17.1C-32.4 12 -33.3 6 -34.2 0L0 0Z" fill="#011936"></path></g><g transform="translate(0, 380)"><path d="M0 -171C29.9 -166.5 59.8 -162 85.5 -148.1C111.2 -134.2 132.8 -110.8 146.4 -84.5C159.9 -58.2 165.5 -29.1 171 0L0 0Z" fill="#cee0df"></path><path d="M0 -136.8C23.9 -133.2 47.8 -129.6 68.4 -118.5C89 -107.3 106.2 -88.6 117.1 -67.6C127.9 -46.6 132.4 -23.3 136.8 0L0 0Z" fill="#87a3aa"></path><path d="M0 -102.6C17.9 -99.9 35.9 -97.2 51.3 -88.9C66.7 -80.5 79.7 -66.5 87.8 -50.7C95.9 -34.9 99.3 -17.5 102.6 0L0 0Z" fill="#49697b"></path><path d="M0 -68.4C12 -66.6 23.9 -64.8 34.2 -59.2C44.5 -53.7 53.1 -44.3 58.5 -33.8C64 -23.3 66.2 -11.6 68.4 0L0 0Z" fill="#16324d"></path><path d="M0 -34.2C6 -33.3 12 -32.4 17.1 -29.6C22.2 -26.8 26.6 -22.2 29.3 -16.9C32 -11.6 33.1 -5.8 34.2 0L0 0Z" fill="#011936"></path></g></svg>