<svg id="visual" viewBox="0 0 900 600" width="900" height="600" xmlns="http://www.w3.org/2000/svg" xmlns:xlink="http://www.w3.org/1999/xlink" version="1.1"><rect x="0" y="0" width="900" height="600" fill="#F7FAFC"></rect><defs><linearGradient id="grad1_0" x1="33.3%" y1="0%" x2="100%" y2="100%"><stop offset="20%" stop-color="#2c73f8" stop-opacity="1"></stop><stop offset="80%" stop-color="#2c73f8" stop-opacity="1"></stop></linearGradient></defs><defs><linearGradient id="grad1_1" x1="33.3%" y1="0%" x2="100%" y2="100%"><stop offset="20%" stop-color="#2c73f8" stop-opacity="1"></stop><stop offset="80%" stop-color="#5aa5ff" stop-opacity="1"></stop></linearGradient></defs><defs><linearGradient id="grad1_2" x1="33.3%" y1="0%" x2="100%" y2="100%"><stop offset="20%" stop-color="#a4d2fe" stop-opacity="1"></stop><stop offset="80%" stop-color="#5aa5ff" stop-opacity="1"></stop></linearGradient></defs><defs><linearGradient id="grad1_3" x1="33.3%" y1="0%" x2="100%" y2="100%"><stop offset="20%" stop-color="#a4d2fe" stop-opacity="1"></stop><stop offset="80%" stop-color="#f7fafc" stop-opacity="1"></stop></linearGradient></defs><defs><linearGradient id="grad2_0" x1="0%" y1="0%" x2="66.7%" y2="100%"><stop offset="20%" stop-color="#2c73f8" stop-opacity="1"></stop><stop offset="80%" stop-color="#2c73f8" stop-opacity="1"></stop></linearGradient></defs><defs><linearGradient id="grad2_1" x1="0%" y1="0%" x2="66.7%" y2="100%"><stop offset="20%" stop-color="#5aa5ff" stop-opacity="1"></stop><stop offset="80%" stop-color="#2c73f8" stop-opacity="1"></stop></linearGradient></defs><defs><linearGradient id="grad2_2" x1="0%" y1="0%" x2="66.7%" y2="100%"><stop offset="20%" stop-color="#5aa5ff" stop-opacity="1"></stop><stop offset="80%" stop-color="#a4d2fe" stop-opacity="1"></stop></linearGradient></defs><defs><linearGradient id="grad2_3" x1="0%" y1="0%" x2="66.7%" y2="100%"><stop offset="20%" stop-color="#f7fafc" stop-opacity="1"></stop><stop offset="80%" stop-color="#a4d2fe" stop-opacity="1"></stop></linearGradient></defs><g transform="translate(900, 0)"><path d="M0 324.5C-57.1 316.2 -114.3 308 -162.2 281C-210.2 254.1 -249 208.5 -274.5 158.5C-300 108.5 -312.3 54.3 -324.5 0L0 0Z" fill="#cce7fc"></path><path d="M0 243.4C-42.9 237.2 -85.7 231 -121.7 210.8C-157.7 190.6 -186.8 156.3 -205.9 118.9C-225 81.4 -234.2 40.7 -243.4 0L0 0Z" fill="#7ebdff"></path><path d="M0 162.2C-28.6 158.1 -57.1 154 -81.1 140.5C-105.1 127 -124.5 104.2 -137.3 79.3C-150 54.3 -156.1 27.1 -162.2 0L0 0Z" fill="#3c8dfe"></path><path d="M0 81.1C-14.3 79.1 -28.6 77 -40.6 70.3C-52.6 63.5 -62.3 52.1 -68.6 39.6C-75 27.1 -78.1 13.6 -81.1 0L0 0Z" fill="#2c73f8"></path></g><g transform="translate(0, 600)"><path d="M0 -324.5C57.3 -316.3 114.5 -308.1 162.2 -281C210 -253.9 248.2 -208 273.7 -158C299.1 -108 311.8 -54 324.5 0L0 0Z" fill="#cce7fc"></path><path d="M0 -243.4C42.9 -237.2 85.9 -231.1 121.7 -210.8C157.5 -190.5 186.2 -156 205.2 -118.5C224.3 -81 233.9 -40.5 243.4 0L0 0Z" fill="#7ebdff"></path><path d="M0 -162.2C28.6 -158.2 57.3 -154.1 81.1 -140.5C105 -127 124.1 -104 136.8 -79C149.6 -54 155.9 -27 162.2 0L0 0Z" fill="#3c8dfe"></path><path d="M0 -81.1C14.3 -79.1 28.6 -77 40.6 -70.3C52.5 -63.5 62.1 -52 68.4 -39.5C74.8 -27 78 -13.5 81.1 0L0 0Z" fill="#2c73f8"></path></g></svg>