<svg id="visual" viewBox="0 0 900 600" width="900" height="600" xmlns="http://www.w3.org/2000/svg" xmlns:xlink="http://www.w3.org/1999/xlink" version="1.1"><rect x="0" y="0" width="900" height="600" fill="#F7FAFC"></rect><defs><linearGradient id="grad1_0" x1="33.3%" y1="0%" x2="100%" y2="100%"><stop offset="20%" stop-color="#2c73f8" stop-opacity="1"></stop><stop offset="80%" stop-color="#2c73f8" stop-opacity="1"></stop></linearGradient></defs><defs><linearGradient id="grad1_1" x1="33.3%" y1="0%" x2="100%" y2="100%"><stop offset="20%" stop-color="#2c73f8" stop-opacity="1"></stop><stop offset="80%" stop-color="#5aa5ff" stop-opacity="1"></stop></linearGradient></defs><defs><linearGradient id="grad1_2" x1="33.3%" y1="0%" x2="100%" y2="100%"><stop offset="20%" stop-color="#a4d2fe" stop-opacity="1"></stop><stop offset="80%" stop-color="#5aa5ff" stop-opacity="1"></stop></linearGradient></defs><defs><linearGradient id="grad1_3" x1="33.3%" y1="0%" x2="100%" y2="100%"><stop offset="20%" stop-color="#a4d2fe" stop-opacity="1"></stop><stop offset="80%" stop-color="#f7fafc" stop-opacity="1"></stop></linearGradient></defs><defs><linearGradient id="grad2_0" x1="0%" y1="0%" x2="66.7%" y2="100%"><stop offset="20%" stop-color="#2c73f8" stop-opacity="1"></stop><stop offset="80%" stop-color="#2c73f8" stop-opacity="1"></stop></linearGradient></defs><defs><linearGradient id="grad2_1" x1="0%" y1="0%" x2="66.7%" y2="100%"><stop offset="20%" stop-color="#5aa5ff" stop-opacity="1"></stop><stop offset="80%" stop-color="#2c73f8" stop-opacity="1"></stop></linearGradient></defs><defs><linearGradient id="grad2_2" x1="0%" y1="0%" x2="66.7%" y2="100%"><stop offset="20%" stop-color="#5aa5ff" stop-opacity="1"></stop><stop offset="80%" stop-color="#a4d2fe" stop-opacity="1"></stop></linearGradient></defs><defs><linearGradient id="grad2_3" x1="0%" y1="0%" x2="66.7%" y2="100%"><stop offset="20%" stop-color="#f7fafc" stop-opacity="1"></stop><stop offset="80%" stop-color="#a4d2fe" stop-opacity="1"></stop></linearGradient></defs><g transform="translate(900, 0)"><path d="M0 216.3C-35 206.2 -70.1 196 -103.5 179.3C-136.9 162.5 -168.8 139.1 -187.3 108.2C-205.9 77.2 -211.1 38.6 -216.3 0L0 0Z" fill="#cce7fc"></path><path d="M0 162.2C-26.3 154.6 -52.5 147 -77.6 134.5C-102.7 121.9 -126.6 104.4 -140.5 81.1C-154.4 57.9 -158.3 28.9 -162.2 0L0 0Z" fill="#7ebdff"></path><path d="M0 108.2C-17.5 103.1 -35 98 -51.7 89.6C-68.5 81.3 -84.4 69.6 -93.7 54.1C-102.9 38.6 -105.6 19.3 -108.2 0L0 0Z" fill="#3c8dfe"></path><path d="M0 54.1C-8.8 51.5 -17.5 49 -25.9 44.8C-34.2 40.6 -42.2 34.8 -46.8 27C-51.5 19.3 -52.8 9.6 -54.1 0L0 0Z" fill="#2c73f8"></path></g><g transform="translate(0, 600)"><path d="M0 -216.3C34.8 -205.7 69.5 -195.1 103 -178.4C136.5 -161.7 168.7 -138.9 187.3 -108.2C206 -77.4 211.2 -38.7 216.3 0L0 0Z" fill="#cce7fc"></path><path d="M0 -162.2C26.1 -154.3 52.1 -146.3 77.2 -133.8C102.4 -121.3 126.5 -104.2 140.5 -81.1C154.5 -58.1 158.4 -29 162.2 0L0 0Z" fill="#7ebdff"></path><path d="M0 -108.2C17.4 -102.9 34.8 -97.6 51.5 -89.2C68.2 -80.9 84.3 -69.5 93.7 -54.1C103 -38.7 105.6 -19.4 108.2 0L0 0Z" fill="#3c8dfe"></path><path d="M0 -54.1C8.7 -51.4 17.4 -48.8 25.7 -44.6C34.1 -40.4 42.2 -34.7 46.8 -27C51.5 -19.4 52.8 -9.7 54.1 0L0 0Z" fill="#2c73f8"></path></g></svg>