<svg id="visual" viewBox="0 0 900 600" width="900" height="600" xmlns="http://www.w3.org/2000/svg" xmlns:xlink="http://www.w3.org/1999/xlink" version="1.1"><rect x="0" y="0" width="900" height="600" fill="#F7FAFC"></rect><defs><linearGradient id="grad1_0" x1="33.3%" y1="0%" x2="100%" y2="100%"><stop offset="20%" stop-color="#4e53c1" stop-opacity="1"></stop><stop offset="80%" stop-color="#4e53c1" stop-opacity="1"></stop></linearGradient></defs><defs><linearGradient id="grad1_1" x1="33.3%" y1="0%" x2="100%" y2="100%"><stop offset="20%" stop-color="#4e53c1" stop-opacity="1"></stop><stop offset="80%" stop-color="#5b81d8" stop-opacity="1"></stop></linearGradient></defs><defs><linearGradient id="grad1_2" x1="33.3%" y1="0%" x2="100%" y2="100%"><stop offset="20%" stop-color="#81ace6" stop-opacity="1"></stop><stop offset="80%" stop-color="#5b81d8" stop-opacity="1"></stop></linearGradient></defs><defs><linearGradient id="grad1_3" x1="33.3%" y1="0%" x2="100%" y2="100%"><stop offset="20%" stop-color="#81ace6" stop-opacity="1"></stop><stop offset="80%" stop-color="#b6d4f1" stop-opacity="1"></stop></linearGradient></defs><defs><linearGradient id="grad1_4" x1="33.3%" y1="0%" x2="100%" y2="100%"><stop offset="20%" stop-color="#f7fafc" stop-opacity="1"></stop><stop offset="80%" stop-color="#b6d4f1" stop-opacity="1"></stop></linearGradient></defs><defs><linearGradient id="grad2_0" x1="0%" y1="0%" x2="66.7%" y2="100%"><stop offset="20%" stop-color="#4e53c1" stop-opacity="1"></stop><stop offset="80%" stop-color="#4e53c1" stop-opacity="1"></stop></linearGradient></defs><defs><linearGradient id="grad2_1" x1="0%" y1="0%" x2="66.7%" y2="100%"><stop offset="20%" stop-color="#5b81d8" stop-opacity="1"></stop><stop offset="80%" stop-color="#4e53c1" stop-opacity="1"></stop></linearGradient></defs><defs><linearGradient id="grad2_2" x1="0%" y1="0%" x2="66.7%" y2="100%"><stop offset="20%" stop-color="#5b81d8" stop-opacity="1"></stop><stop offset="80%" stop-color="#81ace6" stop-opacity="1"></stop></linearGradient></defs><defs><linearGradient id="grad2_3" x1="0%" y1="0%" x2="66.7%" y2="100%"><stop offset="20%" stop-color="#b6d4f1" stop-opacity="1"></stop><stop offset="80%" stop-color="#81ace6" stop-opacity="1"></stop></linearGradient></defs><defs><linearGradient id="grad2_4" x1="0%" y1="0%" x2="66.7%" y2="100%"><stop offset="20%" stop-color="#b6d4f1" stop-opacity="1"></stop><stop offset="80%" stop-color="#f7fafc" stop-opacity="1"></stop></linearGradient></defs><g transform="translate(900, 0)"><path d="M0 297.5C-49.9 286.4 -99.7 275.4 -145.5 252C-191.3 228.6 -233 192.8 -257.6 148.7C-282.3 104.7 -289.9 52.3 -297.5 0L0 0Z" fill="#d5e8f6"></path><path d="M0 238C-39.9 229.2 -79.8 220.3 -116.4 201.6C-153 182.9 -186.4 154.2 -206.1 119C-225.8 83.7 -231.9 41.9 -238 0L0 0Z" fill="#9ac0ec"></path><path d="M0 178.5C-29.9 171.9 -59.8 165.3 -87.3 151.2C-114.8 137.2 -139.8 115.7 -154.6 89.2C-169.4 62.8 -173.9 31.4 -178.5 0L0 0Z" fill="#6c97e0"></path><path d="M0 119C-19.9 114.6 -39.9 110.2 -58.2 100.8C-76.5 91.4 -93.2 77.1 -103 59.5C-112.9 41.9 -115.9 20.9 -119 0L0 0Z" fill="#526bce"></path><path d="M0 59.5C-10 57.3 -19.9 55.1 -29.1 50.4C-38.3 45.7 -46.6 38.6 -51.5 29.7C-56.5 20.9 -58 10.5 -59.5 0L0 0Z" fill="#4e53c1"></path></g><g transform="translate(0, 600)"><path d="M0 -297.5C49.9 -286.4 99.7 -275.4 145.5 -252C191.3 -228.6 233 -192.8 257.6 -148.7C282.3 -104.7 289.9 -52.3 297.5 0L0 0Z" fill="#d5e8f6"></path><path d="M0 -238C39.9 -229.2 79.8 -220.3 116.4 -201.6C153 -182.9 186.4 -154.2 206.1 -119C225.8 -83.7 231.9 -41.9 238 0L0 0Z" fill="#9ac0ec"></path><path d="M0 -178.5C29.9 -171.9 59.8 -165.3 87.3 -151.2C114.8 -137.2 139.8 -115.7 154.6 -89.2C169.4 -62.8 173.9 -31.4 178.5 0L0 0Z" fill="#6c97e0"></path><path d="M0 -119C19.9 -114.6 39.9 -110.2 58.2 -100.8C76.5 -91.4 93.2 -77.1 103 -59.5C112.9 -41.9 115.9 -20.9 119 0L0 0Z" fill="#526bce"></path><path d="M0 -59.5C10 -57.3 19.9 -55.1 29.1 -50.4C38.3 -45.7 46.6 -38.6 51.5 -29.7C56.5 -20.9 58 -10.5 59.5 0L0 0Z" fill="#4e53c1"></path></g></svg>